<?xml version="1.0" encoding="utf-8"?>
<!-- Generator: Adobe Illustrator 22.0.0, SVG Export Plug-In . SVG Version: 6.00 Build 0)  -->
<svg version="1.1" id="Capa_1" xmlns="http://www.w3.org/2000/svg" xmlns:xlink="http://www.w3.org/1999/xlink" x="0px" y="0px"
	 viewBox="0 0 512 512" style="enable-background:new 0 0 512 512;" xml:space="preserve">
<style type="text/css">
	.st0{stroke:#000105;stroke-width:2;stroke-miterlimit:10;}
</style>
<g>
	<path class="st0" d="M41.3,253.6c0-63.7,0-127.5,0-191.2c0-19.6,8.5-28.2,28-28.2c127.8,0,255.6,0,383.4,0c19.5,0,28.1,8.5,28.1,28
		c0,26.2,0.1,52.3,0,78.5c0,5.3,1.6,12.7-6.6,12.6c-7.4-0.1-6.2-7.1-6.2-12.2c-0.1-25.8,0-51.6-0.1-77.5c0-14.1-2.5-16.5-16.7-16.5
		c-127.2,0-254.3,0-381.5,0c-12.8,0-15.4,2.7-15.4,15.7c0,127.2,0,254.3,0,381.5c0,14,2.4,16.4,16.8,16.4c48.1,0,96.1,0.3,144.2-0.2
		c139.1-1.2,250.6-112.3,252.5-251.5c0.1-10.1-0.2-54.6,0.1-64.6c0.1-2.9,4.5,7.7,6.7,5c1.4,1.9,5.9-20.6,6.2-12.4
		c0.2,4.9-0.3,40.9-0.2,41.9c3.8,73.6-13.3,140.9-61.7,198.1c-51.5,60.9-117.5,93.8-197.3,96.3c-51.6,1.6-103.3,0.4-154.9,0.3
		c-16.1,0-25.3-9.5-25.3-25.9C41.3,383.1,41.3,318.3,41.3,253.6z"/>
	<path class="st0" d="M87.5,255.6c0-50.7,0-101.3,0-152c0-16.4,4.5-20.8,21.1-20.8c101.3,0,202.6,0,304,0c16.4,0,20.9,4.6,20.9,21
		c0,35,0.2,69.9,0,104.9c-0.9,122.3-98.4,219.5-220.5,220c-35,0.1-69.9,0-104.9,0c-16.1,0-20.5-4.3-20.6-20.2
		C87.4,357.6,87.5,306.6,87.5,255.6z M418.8,96.4c-2.7-0.2-5.9-0.6-9-0.6c-100,0-200,0.1-300-0.1c-7.3,0-9.5,2.2-9.5,9.5
		c0.2,100.3,0.2,200.7,0,301c0,7.8,2.5,10.1,10.1,10.1c34.3-0.3,68.6,0.5,102.9-0.3c102.9-2.3,187.8-70.9,202.9-170.2
		c7.3-48.3,2.8-98.3,3.6-147.6C419.7,97.9,419.4,97.6,418.8,96.4z"/>
	<path class="st0" d="M322.5,351.6c-18.8,0-35.6-16.9-35.7-36c-0.1-18.9,17-35.9,35.9-35.6c19.3,0.2,35.8,16.8,35.6,35.9
		C358.1,335.1,341.6,351.6,322.5,351.6z M300,315.5c-0.1,12.2,9.8,22.6,21.8,22.9c12.5,0.3,23.3-10,23.5-22.4
		c0.2-12.3-10.5-23-23-22.8C310.2,293.2,300.1,303.4,300,315.5z"/>
</g>
</svg>
