<?xml version="1.0" encoding="utf-8"?>
<!-- Generator: Adobe Illustrator 22.0.0, SVG Export Plug-In . SVG Version: 6.00 Build 0)  -->
<svg version="1.1" id="Capa_1" xmlns="http://www.w3.org/2000/svg" xmlns:xlink="http://www.w3.org/1999/xlink" x="0px" y="0px"
	 viewBox="0 0 512 584.5" style="enable-background:new 0 0 512 584.5;" xml:space="preserve">
<style type="text/css">
	.st0{fill:#000105;}
</style>
<g>
	<path class="st0" d="M480.2,134.4h-76.5v-14c0-58.4-47.5-105.9-105.9-105.9C239.5,14.5,192,62,192,120.4V178H12v358h195.7V178h-0.4
		v-57.6c0-49.8,40.6-90.4,90.4-90.4c49.8,0,90.4,40.6,90.4,90.4v14h-76.5c-12.9,0.1-23.4,10.6-23.4,23.4v6.2
		c0.1,12.9,10.6,23.4,23.4,23.4h168.6c12.9-0.1,23.4-10.6,23.4-23.4v-6.2C503.5,144.9,493,134.4,480.2,134.4z M488.2,157.7v6.2
		c0,4.4-3.5,7.9-7.9,7.9H311.7c-4.4,0-7.9-3.5-7.9-7.9v-6.2c0-4.3,3.5-7.8,7.9-7.9h168.6C484.7,149.8,488.2,153.3,488.2,157.7z
		 M191.7,520H28V194h163.7V520z"/>
	<path class="st0" d="M395.9,227.5c4.2,0,7.7-3.5,7.7-7.7v-12.5c0-4.2-3.5-7.7-7.7-7.7c-4.2,0-7.7,3.5-7.7,7.7v12.5
		C388.2,224,391.7,227.5,395.9,227.5z"/>
	<path class="st0" d="M358.5,199.6c-4.2,0-7.7,3.5-7.7,7.7v37.5c0,4.2,3.5,7.7,7.7,7.7s7.7-3.5,7.7-7.7v-37.5
		C366.2,203.1,362.7,199.6,358.5,199.6z"/>
	<path class="st0" d="M321,199.6c-4.2,0-7.7,3.5-7.7,7.7v12.5c0,4.2,3.5,7.7,7.7,7.7s7.7-3.5,7.7-7.7v-12.5
		C328.7,203.1,325.2,199.6,321,199.6z"/>
	<path class="st0" d="M470.9,199.6c-4.2,0-7.7,3.5-7.7,7.7v12.5c0,4.2,3.5,7.7,7.7,7.7c4.2,0,7.7-3.5,7.7-7.7v-12.5
		C478.6,203.1,475.1,199.6,470.9,199.6z"/>
	<path class="st0" d="M433.4,199.6c-4.2,0-7.7,3.5-7.7,7.7v37.5c0,4.2,3.5,7.7,7.7,7.7c4.2,0,7.7-3.5,7.7-7.7v-37.5
		C441.1,203.1,437.6,199.6,433.4,199.6z"/>
	<path class="st0" d="M388.2,319.7c0,4.2,3.5,7.7,7.7,7.7c4.2,0,7.7-3.5,7.7-7.7v-74.9c0-4.2-3.5-7.7-7.7-7.7
		c-4.2,0-7.7,3.5-7.7,7.7V319.7z"/>
	<path class="st0" d="M358.5,262.1c-4.2,0-7.7,3.5-7.7,7.7v25c0,4.2,3.5,7.7,7.7,7.7s7.7-3.5,7.7-7.7v-25
		C366.2,265.6,362.7,262.1,358.5,262.1z"/>
	<path class="st0" d="M321,237.1c-4.2,0-7.7,3.5-7.7,7.7v74.9c0,4.2,3.5,7.7,7.7,7.7s7.7-3.5,7.7-7.7v-74.9
		C328.7,240.6,325.2,237.1,321,237.1z"/>
	<path class="st0" d="M470.9,237.1c-4.2,0-7.7,3.5-7.7,7.7v74.9c0,4.2,3.5,7.7,7.7,7.7c4.2,0,7.7-3.5,7.7-7.7v-74.9
		C478.6,240.6,475.1,237.1,470.9,237.1z"/>
	<path class="st0" d="M433.4,262.1c-4.2,0-7.7,3.5-7.7,7.7v25c0,4.2,3.5,7.7,7.7,7.7c4.2,0,7.7-3.5,7.7-7.7v-25
		C441.1,265.6,437.6,262.1,433.4,262.1z"/>
	<path class="st0" d="M396,349.4c-2.1,0-4.1,0.8-5.6,2.3c-1.4,1.5-2.2,3.4-2.1,5.4v12.5c0,4.2,3.5,7.7,7.7,7.7s7.7-3.5,7.7-7.7
		v-12.5C403.7,352.9,400.2,349.4,396,349.4z"/>
	<path class="st0" d="M358.5,312c-4.2,0-7.7,3.5-7.7,7.7v50c0,4.2,3.5,7.7,7.7,7.7s7.7-3.5,7.7-7.7v-50
		C366.2,315.5,362.7,312,358.5,312z"/>
	<path class="st0" d="M321,349.4c-4.2,0-7.7,3.5-7.7,7.7v12.5c0,4.2,3.5,7.7,7.7,7.7s7.7-3.5,7.7-7.7v-12.5
		C328.7,352.9,325.2,349.4,321,349.4z"/>
	<path class="st0" d="M470.9,349.4c-4.2,0-7.7,3.5-7.7,7.7v12.5c0,4.2,3.5,7.7,7.7,7.7c4.2,0,7.7-3.5,7.7-7.7v-12.5
		C478.6,352.9,475.1,349.4,470.9,349.4z"/>
	<path class="st0" d="M433.4,312c-4.2,0-7.7,3.5-7.7,7.7v50c0,4.2,3.5,7.7,7.7,7.7c4.2,0,7.7-3.5,7.7-7.7v-50
		C441.1,315.5,437.6,312,433.4,312z"/>
</g>
</svg>
