<?xml version="1.0" encoding="utf-8"?>
<!-- Generator: Adobe Illustrator 22.0.0, SVG Export Plug-In . SVG Version: 6.00 Build 0)  -->
<svg version="1.1" id="Capa_1" xmlns="http://www.w3.org/2000/svg" xmlns:xlink="http://www.w3.org/1999/xlink" x="0px" y="0px"
	 viewBox="0 0 608 584.5" style="enable-background:new 0 0 608 584.5;" xml:space="preserve">
<g>
	<path d="M494.7,35.7c-141.3,0-282.7,0-424.1,0c-30.3,0-46.2,16-46.2,46.2c0,141.3,0,282.7,0,424.1c0,30.2,16,46.2,46.2,46.2
		c141.3,0,282.7,0,424.1,0c30.2,0,46.2-16,46.2-46.2c0-70.7,0-141.4,0-212.1s0-141.3,0-212C540.8,51.6,524.9,35.7,494.7,35.7z
		 M524.6,506c0,21.4-8.6,29.9-30.2,29.9c-70.7,0.1-141.4,0-212.1,0.1c-70.3,0-140.6,0-210.9,0c-22.2,0-30.8-8.5-30.8-30.5
		c0-141,0.1-282.1,0.1-423.1C40.7,60.3,49,52,71.4,52c141-0.1,282.1-0.1,423.1-0.1c21.3,0,30.2,8.7,30.2,29.9
		C524.7,223.2,524.6,364.6,524.6,506z"/>
	<path d="M347.2,190c-0.1-15.3-10.1-25.1-25.5-25.2c-26.1-0.3-52.2-0.3-78.3,0c-14.9,0.2-25.1,9.8-25.1,24.4
		c-0.2,69.9-0.2,139.8,0.1,209.7c0,14,10.1,23.9,24.2,24.1c26.8,0.4,53.7,0.4,80.6,0c12.6-0.1,22.5-8.8,23.7-20.8
		c0.9-8.8,0.1-99.9,0.1-99.9s0,0-0.1,0C347.5,264.9,347.5,227.4,347.2,190z M234.9,189c0.1-2.8,6.6-7.5,10.3-7.6
		c24.9-0.7,49.8-0.3,74.7-0.4c7.6,0,11.1,3.6,11.1,11.2c-0.1,22.6,0,45.2,0,69c-32.7,0-63.9,0-96.6,0C234.4,237,234.1,213,234.9,189
		z M320.3,406.9c-25-0.1-49.9-0.1-74.9,0c-7.7,0.1-11.2-3.5-11.2-11.2c0-38.8,0-77.5,0-117c33.1,0,64.7,0,96.8,0
		c0,6.8-0.4,13.3-0.2,19.6c0,11.4,0.2,91,0.3,97C331.3,402.8,328.2,406.9,320.3,406.9z"/>
	<path d="M94.6,76.3c-13.2,0-24,10.8-24,24s10.8,24,24,24s24-10.8,24-24S107.8,76.3,94.6,76.3z M94.6,111.3c-6.1,0-11-4.9-11-11
		s4.9-11,11-11s11,4.9,11,11S100.7,111.3,94.6,111.3z"/>
	<path d="M472.9,76.3c-13.2,0-24,10.8-24,24s10.8,24,24,24s24-10.8,24-24S486.1,76.3,472.9,76.3z M472.9,111.3c-6.1,0-11-4.9-11-11
		s4.9-11,11-11s11,4.9,11,11S479,111.3,472.9,111.3z"/>
	<path d="M94.6,441.8c-13.2,0-24,10.8-24,24s10.8,24,24,24s24-10.8,24-24S107.8,441.8,94.6,441.8z M94.6,476.8c-6.1,0-11-4.9-11-11
		s4.9-11,11-11s11,4.9,11,11S100.7,476.8,94.6,476.8z"/>
	<path d="M472.9,441.8c-13.2,0-24,10.8-24,24s10.8,24,24,24s24-10.8,24-24S486.1,441.8,472.9,441.8z M472.9,476.8
		c-6.1,0-11-4.9-11-11s4.9-11,11-11s11,4.9,11,11S479,476.8,472.9,476.8z"/>
</g>
</svg>
