<svg version="1.1" xmlns="http://www.w3.org/2000/svg" xmlns:xlink="http://www.w3.org/1999/xlink" style="" xml:space="preserve" width="512" height="512"><rect id="backgroundrect" width="100%" height="100%" x="0" y="0" fill="none" stroke="none"/>

<g class="currentLayer" style=""><title>Layer 1</title><g id="svg_1" class="selected" transform="rotate(179.971, 255.98, 256.025)">
	<g id="svg_2">
		<path d="M508.9,248.5l-160-160c-4.2-4.2-10.9-4.2-15.1,0c-4.2,4.2-4.2,10.9,0,15.1l141.8,141.8H10.7C4.8,245.3,0,250.1,0,256    s4.8,10.7,10.7,10.7h464.9L333.8,408.5c-4.2,4.2-4.2,10.9,0,15.1c2.1,2.1,4.8,3.1,7.5,3.1s5.5-1,7.5-3.1l160-160    C513,259.4,513,252.6,508.9,248.5z" id="svg_3"/>
	</g>
</g></g></svg>