<?xml version="1.0" encoding="utf-8"?>
<!-- Generator: Adobe Illustrator 22.0.0, SVG Export Plug-In . SVG Version: 6.00 Build 0)  -->
<svg version="1.1" id="Capa_1" xmlns="http://www.w3.org/2000/svg" xmlns:xlink="http://www.w3.org/1999/xlink" x="0px" y="0px"
	 viewBox="0 0 522 312" style="enable-background:new 0 0 522 312;" xml:space="preserve">
<path d="M482,127.8H264.2V74.4c0-13.3,10.7-24,24-24s24,10.7,24,24c0,4.4,3.6,8,8,8h32c4.4,0,8-3.6,8-8c0-39.8-32.2-72-72-72
	s-72,32.2-72,72v53.4h-65.8l4.7-37.6c0.4-3-1.8-5.8-4.8-6.2c-0.2,0-0.5,0-0.7,0h-44.1c-3,0-5.5,2.5-5.5,5.5c0,0.2,0,0.5,0,0.7
	l4.8,37.6H25.2c-6.2,0-11.3,5.1-11.3,11.3v131.6c0,6.2,5.1,11.3,11.3,11.3H482c6.1,0,11-4.8,11.3-11l0-131.9
	C493.3,132.9,488.2,127.8,482,127.8z M232.2,74.5c0-30.9,25-56,56-56c27.9,0,51.5,20.5,55.5,48h-16.2c-4.4-21.7-25.5-35.6-47.2-31.2
	c-18.7,3.8-32.1,20.2-32,39.2v53.3h-16L232.2,74.5L232.2,74.5z M111.8,95h31.6l-4.1,32.8H116L111.8,95z M479.3,268H27.9V141.8h451.4
	V268z"/>
</svg>
