<?xml version="1.0" encoding="utf-8"?>
<!-- Generator: Adobe Illustrator 22.0.0, SVG Export Plug-In . SVG Version: 6.00 Build 0)  -->
<svg version="1.1" id="Layer_2_copy_2" xmlns="http://www.w3.org/2000/svg" xmlns:xlink="http://www.w3.org/1999/xlink" x="0px"
	 y="0px" viewBox="0 0 512 512" style="enable-background:new 0 0 512 512;" xml:space="preserve">
<path d="M478.1,279.4C467.4,264.7,450.2,256,432,256v-24c0-4.4-3.6-8-8-8H168c-4.4,0-8,3.6-8,8v24h-8V30.2c0-4.4-3.6-8-8-8H32
	c-4.4,0-8,3.6-8,8V264c0,4.4,3.6,8,8,8h24v232c0,4.4,3.6,8,8,8h353.5c3.4,0,6.5-2.2,7.6-5.5l60.2-180.4
	C490.6,310.3,488,292.9,478.1,279.4z M176,240h240v16H176V240z M40,256V38.2h96V256H40z M470.1,321l-58.3,175H72V272h359.7
	c13.2-0.1,25.6,6.1,33.4,16.7C472,298,473.9,310.1,470.1,321z"/>
<path d="M88,48c-17.6,0-32,14.3-32,31.9c0,14.6,9.8,27.3,24,31V128h16v-17.1c17.1-4.4,27.4-21.8,23-38.9C115.3,57.8,102.6,48,88,48z
	 M96,93.8V80H80v13.8c-7.7-4.4-10.3-14.2-5.9-21.9c4.4-7.7,14.2-10.3,21.9-5.9s10.3,14.2,5.9,21.9C100.5,90.4,98.4,92.4,96,93.8z"/>
</svg>
