<?xml version="1.0" encoding="utf-8"?>
<!-- Generator: Adobe Illustrator 22.0.0, SVG Export Plug-In . SVG Version: 6.00 Build 0)  -->
<svg version="1.1" id="Слой_1" xmlns="http://www.w3.org/2000/svg" xmlns:xlink="http://www.w3.org/1999/xlink" x="0px" y="0px"
	 viewBox="0 0 512 512" style="enable-background:new 0 0 512 512;" xml:space="preserve">
<path d="M496,272H72V80c0-13.3,10.7-24,24-24h40c13.3,0,24,10.7,24,24v32h-32c-13.3,0-24,10.7-24,24v16c0,4.4,3.6,8,8,8h112
	c4.4,0,8-3.6,8-8v-16c0-13.3-10.7-24-24-24h-32V80c0-22.1-17.9-40-40-40H96c-22.1,0-40,17.9-40,40v192H16c-4.4,0-8,3.6-8,8v32
	c0,4.4,3.6,8,8,8h8v112c0,19,13.4,35.4,32,39.2V496c0,4.4,3.6,8,8,8h32c4.4,0,8-3.6,8-8v-24h304v24c0,4.4,3.6,8,8,8h32
	c4.4,0,8-3.6,8-8v-24.8c18.6-3.8,32-20.2,32-39.2V320h8c4.4,0,8-3.6,8-8v-32C504,275.6,500.4,272,496,272z M208,128c4.4,0,8,3.6,8,8
	v8h-96v-8c0-4.4,3.6-8,8-8H208z M88,488H72v-16h16V488z M440,488h-16v-16h16V488z M472,432c0,13.3-10.7,24-24,24H64
	c-13.3,0-24-10.7-24-24V320h432V432z M488,304H24v-16h464V304z"/>
</svg>
