<?xml version="1.0" encoding="utf-8"?>
<!-- Generator: Adobe Illustrator 22.0.0, SVG Export Plug-In . SVG Version: 6.00 Build 0)  -->
<svg version="1.1" id="Layer_2" xmlns="http://www.w3.org/2000/svg" xmlns:xlink="http://www.w3.org/1999/xlink" x="0px" y="0px"
	 viewBox="0 0 589 568" style="enable-background:new 0 0 589 568;" xml:space="preserve">
<style type="text/css">
	.st0{stroke:#000105;stroke-width:2;stroke-miterlimit:10;}
</style>
<path class="st0" d="M550,278c0-16.6-13.4-30-30-30h-16V104.5c0.3-45.6-36.4-82.8-81.9-83.1s-82.8,36.4-83.1,81.9c0,0.4,0,0.8,0,1.1
	v20.1c-16.7,2.9-29,17.5-29,34.4v10.3c0,3.9,3.1,7,7,7h90c3.9,0,7-3.1,7-7V159c0-17-12.2-31.5-29-34.4v-20.1
	c-0.2-20.2,16-36.7,36.1-36.9c20.2-0.2,36.7,16,36.9,36.1c0,0.3,0,0.5,0,0.8V248H68c-16.6,0.2-29.8,13.8-29.6,30.4
	c0.2,15.4,12.1,28.2,27.5,29.5L90.7,419c8.4,38.3,41.6,66.2,80.8,67.8l-30.4,35.6c-2.5,2.9-2.2,7.4,0.8,9.9c1.3,1.1,2.9,1.7,4.5,1.7
	H186c2.1,0,4-0.9,5.3-2.5l37.9-44.5h129.6l37.9,44.5c1.3,1.6,3.3,2.5,5.3,2.5h39.5c3.9,0,7-3.1,7-7c0-1.7-0.6-3.3-1.7-4.5
	l-30.4-35.6c39.2-1.6,72.4-29.5,80.8-67.8L522,308C537.8,306.8,550,293.7,550,278z M400,159v3.3h-76V159c0-11.6,9.4-21,21-21h34
	C390.6,138,400,147.4,400,159z M421.5,54c-27.9,0-50.5,22.6-50.5,50.5V124h-18v-19.5c-0.3-37.8,30.1-68.7,68-69s68.7,30.1,69,68
	c0,0.3,0,0.7,0,1V248h-18V104.5C472,76.6,449.4,54,421.5,54z M182.7,520h-21.1l28.1-33h21.1L182.7,520z M405.3,520l-28.1-33h21.1
	l28.1,33H405.3z M483.6,415.9c-7.3,33.4-37,57.2-71.2,57.1H175.6c-34.2,0.2-63.9-23.6-71.2-57.1L80.2,308h427.5L483.6,415.9z
	 M520,294H68c-8.8,0-16-7.2-16-16s7.2-16,16-16h452c8.8,0,16,7.2,16,16S528.8,294,520,294z"/>
</svg>
