<?xml version="1.0" encoding="utf-8"?>
<!-- Generator: Adobe Illustrator 22.0.0, SVG Export Plug-In . SVG Version: 6.00 Build 0)  -->
<svg version="1.1" id="Слой_1" xmlns="http://www.w3.org/2000/svg" xmlns:xlink="http://www.w3.org/1999/xlink" x="0px" y="0px"
	 viewBox="0 0 512 512" style="enable-background:new 0 0 512 512;" xml:space="preserve">
<g id="Box">
	<path d="M442.6,176l51.4-58.7c2.9-3.3,2.6-8.4-0.7-11.3c-0.8-0.7-1.8-1.3-2.8-1.6l-176-56c-3-1-6.3,0-8.4,2.4l-50,57.1l-50-57.1
		c-2.1-2.4-5.4-3.3-8.4-2.4l-176,56c-4.2,1.3-6.5,5.8-5.2,10c0.3,1,0.9,2,1.6,2.8L69.4,176L18,234.7c-2.9,3.3-2.6,8.4,0.8,11.3
		c0.8,0.7,1.8,1.3,2.9,1.6l50.4,16V424c0,3.4,2.1,6.4,5.3,7.5l176,64c0.1,0,0.1,0,0.2,0c1.7,0.6,3.5,0.6,5.1,0c0.1,0,0.1,0,0.2,0
		l176-64c3.2-1.2,5.3-4.2,5.3-7.5V263.7l50.4-16c4.2-1.3,6.5-5.8,5.2-10c-0.3-1-0.9-2-1.6-2.8L442.6,176z M256,223.6L106.4,176
		L248,130.9V200c0,4.4,3.6,8,8,8s8-3.6,8-8v-69.1L405.6,176L256,223.6z M314.6,65.2L474,115.9l-44.5,50.9l-159.4-50.7L314.6,65.2z
		 M197.4,65.2l44.5,50.9L82.6,166.8l-44.5-50.9L197.4,65.2z M82.6,185.2L242,235.9l-44.5,50.9L38.1,236.1L82.6,185.2z M424,418.4
		l-160,58.2V408c0-4.4-3.6-8-8-8s-8,3.6-8,8v68.6L88,418.4V268.8l109.6,34.9c0.8,0.2,1.6,0.3,2.4,0.3c2.3,0,4.5-1,6-2.7l42-48V410
		c0,4.4,3.6-8.3,8-8.3s8,12.7,8,8.3V253.3l42,48c1.5,1.7,3.7,2.7,6,2.7c0.8,0,1.6-0.1,2.4-0.4L424,268.8V418.4z M314.6,286.8
		l-44.5-50.9l159.4-50.7l44.5,50.9L314.6,286.8z"/>
</g>
</svg>
