<?xml version="1.0" encoding="utf-8"?>
<!-- Generator: Adobe Illustrator 22.0.0, SVG Export Plug-In . SVG Version: 6.00 Build 0)  -->
<svg version="1.1" id="Слой_1" xmlns="http://www.w3.org/2000/svg" xmlns:xlink="http://www.w3.org/1999/xlink" x="0px" y="0px"
	 viewBox="0 0 512 512" style="enable-background:new 0 0 512 512;" xml:space="preserve">
<path d="M256,512C114.8,512,0,397.2,0,256S114.8,0,256,0s256,114.8,256,256S397.2,512,256,512z M256,32C132.5,32,32,132.5,32,256
	s100.5,224,224,224s224-100.5,224-224S379.5,32,256,32z"/>
<path d="M368,394.7c-4.1,0-8.2-1.6-11.3-4.7l-112-112c-3-3-4.7-7.1-4.7-11.3V117.3c0-8.8,7.2-16,16-16s16,7.2,16,16V260l107.3,107.3
	c6.3,6.3,6.3,16.4,0,22.6C376.2,393.1,372.1,394.7,368,394.7z"/>
</svg>
