<?xml version="1.0" encoding="utf-8"?>
<!-- Generator: Adobe Illustrator 22.0.0, SVG Export Plug-In . SVG Version: 6.00 Build 0)  -->
<svg version="1.1" id="Capa_1" xmlns="http://www.w3.org/2000/svg" xmlns:xlink="http://www.w3.org/1999/xlink" x="0px" y="0px"
	 viewBox="0 0 512 512" style="enable-background:new 0 0 512 512;" xml:space="preserve">
<style type="text/css">
	.st0{fill:#000105;}
</style>
<g>
	<path class="st0" d="M489,53.8c6.8,0,12.4-5.5,12.4-12.4v-29C501.3,5.5,495.8,0,489,0H167.7c-6.8,0-12.4,5.5-12.4,12.4v29.1
		c0,6.8,5.5,12.4,12.4,12.4h7.4v217.9h-7.5c-6.8,0-12.4,5.5-12.4,12.4v29.1c0,6.8,5.5,12.3,12.3,12.4V469c0,6.6,5.5,12,12.4,12h24.3
		v16h15v-16.1h218V497h15v-16.1h24.3c6.8,0,12.4-5.4,12.4-12V325.6c6.8,0,12.3-5.5,12.3-12.4v-29.1c0.1-6.8-5.4-12.3-12.2-12.3
		h-11.2h0v-218H489z M380.9,271.8c-0.8,0-1.5,0-1.9,0h-23h-70.9c-8.1,0-41.6-1.4-40,0h-51.3h-3.7V53.9h3.8h52.6h15h69.1
		c0.4,0,0.7,0,0.8-0.1h18.9h44.8h15h52.6h0.1v218C462.8,271.8,394.8,271.8,380.9,271.8z M170.3,15h316v23.8H308.1
		c-0.4,0-0.8,0-1.2,0.1H170.3V15z M474,465.9H182.6v-70.2H474V465.9z M474,380.8H182.6v-55.1H474V380.8z M486.3,286.8v23.8h-316
		v-23.8H356h11.6H486.3z"/>
	<path class="st0" d="M294.4,432.4h67.9c4.1,0,7.5-3.4,7.5-7.5c0-4.1-3.4-7.5-7.5-7.5h-67.9c-4.1,0-7.5,3.4-7.5,7.5
		C286.9,429,290.3,432.4,294.4,432.4z"/>
	<path class="st0" d="M294.3,354.7h67.9c4.1,0,7.5-3.4,7.5-7.5c0-4.1-3.4-7.5-7.5-7.5h-67.9c-4.1,0-7.5,3.4-7.5,7.5
		C286.8,351.3,290.2,354.7,294.3,354.7z"/>
</g>
</svg>
