<?xml version="1.0" encoding="utf-8"?>
<!-- Generator: Adobe Illustrator 22.0.0, SVG Export Plug-In . SVG Version: 6.00 Build 0)  -->
<svg version="1.1" id="Capa_1" xmlns="http://www.w3.org/2000/svg" xmlns:xlink="http://www.w3.org/1999/xlink" x="0px" y="0px"
	 viewBox="0 0 512 512" style="enable-background:new 0 0 512 512;" xml:space="preserve">
<path d="M481.9,193.7c-1.5-42.5-16.1-82.6-42.5-116.3c-2.6-3.3-7.3-3.8-10.5-1.3c-3.3,2.6-3.8,7.3-1.3,10.5
	c24.2,30.9,37.7,67.7,39.3,106.7H452c-4-90.8-79.2-163.4-171-163.4c-94.4,0-171.1,76.8-171.1,171.2v111.8H95V201.1
	C95,98.5,178.5,15,281,15c42.3,0,82.1,13.9,115.3,40.1c1.6,1.3,27.2,25.7,32.5,33.1c6.5,9-1.2-10.5,0-12.1
	c1.5-1.9,14.8,7.9,10.5,1.3c-3-4.7-23.4-26.5-24.8-27.5C378.8,21.5,326.7,0,281,0C170.2,0,80,90.2,80,201.1v113.5
	c-12.8,4.3-22,16.3-22,30.5v63c0,9.6,15,9.6,15,0v-63c0-8.2,5.6-16.8,13.5-16.8c6.5,0,26.5-0.2,32.9-0.2c8.3,0,14.5,8.4,14.5,16.9
	v24.2c0,4.1,3.4,7.5,7.5,7.5h29.8v47.8h-29.8c-4.1,0-7.5,3.4-7.5,7.5v34.7H73v-66c0-9.6-15-9.6-15,0v66.4
	c-18.6,2.4-33.1,18.3-33.1,37.6c0,4.1,3.4,7.5,7.5,7.5h142c4.1,0,7.5-3.4,7.5-7.5c0-19.3-14.4-35.2-33.1-37.6v-27.5h29.8h1h48.8
	c4.1,0,7.5-3.4,7.5-7.5v-62.8v-59.8c0-9.6-15-9.6-15,0v52.3h-41.3h-1h-29.8V345c0-14.9-10.2-27.5-24-31.1V201.1
	c0-86.1,70-156.2,156.1-156.2c83.8,0,152.4,66.4,156,149.4c-2.3,1.3-3.8,3.7-3.8,6.5v32.9c0,4.1,3.4,7.5,7.5,7.5h38.9
	c4.1,0,7.5-3.4,7.5-7.5v-32.9C487.1,197.5,484.9,194.7,481.9,193.7L481.9,193.7z M165.7,497H41.2c3.1-8.9,11.6-15.4,21.6-15.4h81.3
	C154.1,481.6,162.6,488.1,165.7,497z M221,424.5h-33.8v-47.8H221V424.5z M448.2,226.2v-17.6h23.9v17.6H448.2z"/>
<path d="M466.6,262.4c-2.8-4.9-10.2-4.9-13,0l-16,27.8c-4.7,8.1-4.7,17.9,0,26s13.1,13,22.5,13s17.8-4.9,22.5-13s4.7-17.9,0-26
	L466.6,262.4z M469.7,308.6c-2,3.4-5.5,5.5-9.5,5.5s-7.5-2.1-9.5-5.5s-2-7.6,0-11l9.5-16.5l9.5,16.5
	C471.6,301.1,471.6,305.2,469.7,308.6z"/>
</svg>
