<?xml version="1.0" encoding="utf-8"?>
<!-- Generator: Adobe Illustrator 22.0.0, SVG Export Plug-In . SVG Version: 6.00 Build 0)  -->
<svg version="1.1" id="Слой_1" xmlns="http://www.w3.org/2000/svg" xmlns:xlink="http://www.w3.org/1999/xlink" x="0px" y="0px"
	 viewBox="0 0 512 512" style="enable-background:new 0 0 512 512;" xml:space="preserve">
<path d="M112,478.6c17.7,0,32-14.3,32-32c0-17.7-14.3-32-32-32s-32,14.3-32,32C80,464.2,94.3,478.6,112,478.6z M112,430.6
	c8.8,0,16,7.2,16,16s-7.2,16-16,16s-16-7.2-16-16S103.2,430.6,112,430.6z"/>
<path d="M464,494.6V202.2L256,69.1L76.5,183.9l-4.3-32c9-5.3,16.1-13.4,20.1-23.1L256,24.1l243.7,156l8.6-13.5L256,5.1L95.9,107.6
	c-1.5-49-40-96.1-41.7-98.1L48,2l-6.2,7.5C40.1,11.5,0,60.8,0,110.6c0,17,9.1,32.8,23.8,41.4L8.1,269.5L8,510.6h16v-232h48v96.7
	l-12.6,7.3H40v128h384v-128h-17.2l-21.7-80.7l-17.1,4.6V190.6H144v143.1L88,366v-95.5l-9.2-69.1L256,88l192,122.9v299.6h64v-16H464z
	 M25.1,262.6l14-104.9c5.9,1.1,11.9,1.1,17.8,0l14,104.9H25.1z M56,141.4v-30.9H40v30.9c-14.1-3.6-23.9-16.3-24-30.9
	c0-33,21.2-67.3,32-82.6c10.8,15.3,32,49.5,32,82.6C79.9,125.1,70.1,137.8,56,141.4z M248,494.6h-64v-96h64V494.6z M328,494.6h-64
	v-96h64V494.6z M408,398.6v96h-64v-96H408z M373.8,321.5l16.4,61.1H145.9L373.8,321.5z M264,206.6h88v77.2l-30.4-52.6L264,264.4
	V206.6z M160,206.6h88v64h-88V206.6z M160,286.6h65.7L160,324.5V286.6z M315.8,253l33.7,58.4L97.7,378.9L315.8,253z M168,398.6v96
	H56v-96H168z"/>
</svg>
