<?xml version="1.0" encoding="utf-8"?>
<!-- Generator: Adobe Illustrator 22.0.0, SVG Export Plug-In . SVG Version: 6.00 Build 0)  -->
<svg version="1.1" id="Layer_1" xmlns="http://www.w3.org/2000/svg" xmlns:xlink="http://www.w3.org/1999/xlink" x="0px" y="0px"
	 viewBox="0 0 512 512" style="enable-background:new 0 0 512 512;" xml:space="preserve">
<g>
	<g>
		<path d="M450,126.7H328l-62,163.1h100.7v38c0,25.3-9.9,49-27.9,66.9s-41.8,27.7-67.1,27.5c-51.7-0.3-93.8-43.1-93.8-95.5v-42.2
			c0-12.3-10-22.3-22.3-22.3s-22.3,10-22.3,22.3v23h-59V283c0-36.6-29.8-66.4-66.4-66.4H0v224.3h7.8c36.6,0,66.4-29.8,66.4-66.4V350
			h61c11.2,65.9,68,116.4,136.3,116.8c0.3,0,0.5,0,0.8,0c36.9,0,71.7-14.4,98-40.5c26.5-26.3,41.1-61.3,41.1-98.6v-38H512L450,126.7
			z M58.6,374.5c0,25.4-18.7,46.5-43,50.2v-192c24.3,3.8,43,24.9,43,50.2V374.5z M74.2,334.5V323h59v3.3c0,2.7,0.1,5.4,0.2,8.1H74.2
			V334.5z M395.8,327.8c0,33.1-13,64.2-36.5,87.5c-23.3,23.2-54.2,36-87,36c-0.2,0-0.5,0-0.7,0c-67.7-0.4-122.8-56.4-122.8-124.9
			v-41.9c0-3.7,3-6.8,6.8-6.8c3.7,0,6.8,3,6.8,6.8v42.2c0,60.9,49,110.7,109.3,111.1c29.4,0.2,57.2-11.2,78.1-32
			s32.5-48.5,32.5-77.9v-38h13.5V327.8z M288.5,274.2l50.2-132h100.5l50.2,132H288.5z"/>
	</g>
</g>
</svg>
