<?xml version="1.0" encoding="utf-8"?>
<!-- Generator: Adobe Illustrator 22.0.0, SVG Export Plug-In . SVG Version: 6.00 Build 0)  -->
<svg version="1.1" id="Слой_1" xmlns="http://www.w3.org/2000/svg" xmlns:xlink="http://www.w3.org/1999/xlink" x="0px" y="0px"
	 viewBox="0 0 420.1 58.7" style="enable-background:new 0 0 420.1 58.7;" xml:space="preserve">
<g>
	<path d="M32.2,44.6C32.2,44.6,32.2,44.6,32.2,44.6c0.1,0,0.2,0.1,0.4,0.2C32.4,44.8,32.3,44.7,32.2,44.6z"/>
	<path d="M33.6,45.4c0,0-0.5-0.3-0.9-0.6C32.9,45,33.2,45.2,33.6,45.4z"/>
	<path d="M31.6,44.3c0,0-0.1,0-0.2-0.1c0.1,0.1,0.3,0.1,0.4,0.2C31.9,44.4,31.8,44.4,31.6,44.3z"/>
	<path d="M30.5,43.7c0,0,0.7,0.4,1,0.5C31.2,44,30.8,43.9,30.5,43.7z"/>
	<path d="M31.9,44.4c0,0,0,0,0.3,0.2C32.1,44.5,32,44.5,31.9,44.4z"/>
	<path d="M42.6,43.3c-0.2-0.8-0.3-1.6-0.6-2.3c14.1-5.5,17.1-16.9,29.4-15C61.6,19.6,53,31.5,41,38c2.6-1.6,8.8-5.5,9-6.4
		c0.5-0.6,0.2-1.5-0.1-2.4c0.1,0.1,0.1-0.2,0.1-0.2c0.1-0.4,0.2-0.7,0.3-1.1c2-0.7,4-1.2,5.6-2.8c0.4-0.3,0.6-0.6,0.6-1
		c-0.2-0.2-0.2-0.8-0.3-1c-0.3-1.2-1.2-2.1-2.1-2.9c-0.3-2-2.2-3.5-4.8-3.3c-0.6-0.2-1.4-0.2-2.2-0.4c-0.1-0.1-0.2-0.2-0.1-0.4
		c1.1-0.5,0.4-0.9,0.6-1.7c0.1-0.3-0.2-0.6-0.3-0.9c-0.1-0.1-0.5-0.2-0.4-0.4c0-0.1-0.1-0.1-0.2-0.2c0,0,0-0.1-0.1-0.1
		c0,0-0.1-0.1-0.1-0.2c0-0.3-1-0.8-1.4-0.8c-0.9-0.2-2.5-0.2-3.3,0.3c-0.3,0.1-0.4,0.5-0.8,0.5c-1,0-1.3,2-0.5,1.7
		c0.2,0.2,0.3,0.2,0.4,0.1c0.1,0.1,0.2,0.1,0.4,0c0,0.2,0.1,0.4,0.3,0.7c0.1,0.1,0.2,0,0.2,0.2c0,0.3,0,0.5-0.1,0.8
		c0,0.2,0,0.3,0.2,0.2c0.1,0,0.1-0.1,0.2,0c0.1,0.1,0.1,0.2,0.1,0.3c0,0.1,0,0.1,0,0.2c0,0,0.2,0,0.4-0.1c0,0.2-0.3,0.1-0.2,0.2
		c0,0,0.1,0.1,0.1,0.1c0.5,0.1,0,0.7,0.8,0.3c0.2,0.1,0.3,0.2,0.2,0.3c0.2,0.6-1.9,0.4-2.4,1.2c0,0,0,0,0,0
		c-0.2,0.1-0.3,0.3-0.7,0.3c-0.6,0-1.5-0.7-3.1,0.4c-0.1,0.1-0.4,0.4-0.6,0.7c0,0.1-0.1,0.2-0.2,0.3c0,0,0.1-0.1,0.2-0.3
		c0.4-1.1-2.2-4.5-2.6-5.3c1,0,1.9-0.3,2.5-0.8l0.7-2.3c-1.7-3.2-5-3.1-7.9-2.2C28,10,26.9,9.3,25.6,8.3l-0.2,0.4
		c0.6,0.8,0.8,1.4,0.7,2c0,0-0.3,0-0.6,0.1c0.2,0,0.4-0.1,0.6-0.1c0,0,0,0,0,0c-10.3,4.4-7.1,13.8-6.7,23
		C20,46.9,15.5,48.4,7.8,47.4c-1.2-0.1-1.9-0.6-2.4-1.2c1.4,0.2,3.1,0.2,5.2-0.1c11.3-1.8,5.5-18.9,7-27.4c1.1-6.1,6.1-7.6,7.9-7.9
		c-12.2,1.8-9.7,12.1-9.3,21.1c0.6,12.9-3.8,14.6-11.1,13.7c-0.8-1.9,1.2-4.5,5.2-3.4c0.1,0-4.8-2.3-6.4,0.9
		c-0.3,0.6-0.3,1.5,0.2,2.3c-4.2-1-2.5-6.6,3-5.1c0.1,0-4.8-2.3-6.4,0.9c-0.6,1.3,0.1,3.8,3.7,4.7c1.2,1.5,4,2.7,9.4,1.9
		c11.3-1.8,6.3-18.7,7-27.4c0.6-7.4,5.2-9.7,5.3-9.8c0,0.6-0.4,1.1-1.1,1.8c-0.1,0.1,0.1,0.3,0.2,0.4c1-0.2,2.1-0.1,3.1,0.5
		c0.3,0.2,0.6,0.3,1,0.5c0.1,0.2,0.2,0.5,0.3,0.5c1.2,0.7,3.2,1.1,3.2,1.1c0.1,0.7,0.2,0.7,0.6,1.9c0.5,1.3,1.7,4.7,2.6,5.2
		c0.5,0.2,1.9-0.1,3.1-0.3c0.6-0.1,1.6-0.6,2-0.1c0.4,1.8,1,4,1.4,5c0.1,0.4,0.2,0.8,0.2,1.2c-4.9-0.1-8.2,0.8-10.2,2
		c-0.7,0.6-0.6,1.3,0,2c1.4,1.6,2.7,3.1,4.1,4.7c0-0.1,0-0.2,0.1-0.2c0.2-0.6,0.6-1.2,1.1-1.8c0-1.2-0.2-2-0.8-2.8
		c2,0.2,2.5,0.4,2.9,0.7c-0.8,0.7-1.5,1.4-2.1,2.1c0,0.1,0,0.1,0,0.2c-0.4,0.6-0.8,1.3-1.1,1.9c0,0,0,0,0,0c-0.3,1-0.4,2-0.4,3
		c0,0,0,0,0,0c-1.6,0.6-3.3,1.1-5,1.4l-1.1,0.2c-0.2,0-0.5,0.1-0.7,0.1c0,0-1.1,0.1-1.1,0.1c-0.6,0-1.3,0-2,0
		C15.7,53.5,3,48.2,3.2,48.3c4.2,8.6,15.4,5.6,25.1-1.4c5.2,0.6,9.4,0.5,13-0.1c0.9,1.5,1.5,2.9,1.6,4.2c-0.4,0.2-1,0.4-1.3,0.5
		c0.3,0.3,0.8,0.5,1.5,0.5c0.6-0.1,1.2-0.4,1.7-0.8c-0.3-2,0.3-3,0.9-3.7c0.2-0.4-0.6-0.7-0.6-0.8c-0.5,0-0.9-0.2-1.2-0.5
		c15.7-4,17.4-17.9,30-15.6C64.8,22.2,56.6,37.5,42.6,43.3z M50.4,22.8c0.1-0.3,0.2-0.7,0.3-1c0-0.3-0.1-0.5-0.2-1
		c0.2,0.9,2.2,3.1,3.3,3c-1.1,0.7-2.5,1.4-3.6,2.2C49.3,26.6,50.2,23.8,50.4,22.8z M36.5,45.1c-2.1,0.4-2.9,0.3-2.9,0.3
		c-1.7,0.1-3.4,0-5.2-0.3c-13.5,9.2-20.7,8-25,3.3c6.4,4.8,14.7,2.9,24-4.6c0.9,0,2.3-0.1,3.1-0.2l2.5-0.3c2-0.3,3.7-0.7,5.4-1.1
		c0.5,0.7,1,1.4,1.4,2.1C38.7,44.7,37.6,44.9,36.5,45.1z"/>
	<path d="M29.3,7.9c0.3-0.4,2-0.5,3.2,0.8c1.6,0.5,2-0.9,0.8-1c0,0,0,0,0,0c0,0,0,0-0.1,0c-0.1,0-0.2,0.2-0.1,0.3
		c0.1,0.1,0.2,0.2,0.3,0.1c0.1,0,0.2-0.2,0.1-0.3c0,0,0,0,0,0c0.7,0.4,0,1.1-1.1,0.6c-1-1-1.9-1.4-2.6-1.3c-0.4,0-0.8,0.2-1.1,0.4
		c-0.9,0.6-0.1,2.1,1.4,1.8c0.3-0.2,0.3-0.3,0.2-0.5c-0.1-0.1-0.2-0.2-0.3-0.2c0.2,0.2,0.3,0.4,0,0.5C28.7,9.1,28.7,8.3,29.3,7.9z"
		/>
	<path d="M8.9,36.4c-0.5-2.1-0.8-4.2-0.8-6.4c0-15.2,12.5-27.6,27.8-27.6c11.8,0,22.3,7.4,26.2,18.5l0.9-0.3
		C59,9.1,48.1,1.4,35.9,1.4C20,1.4,7.1,14.3,7.1,30c0,2.2,0.3,4.5,0.8,6.6L8.9,36.4z"/>
	<path d="M35.9,57.7c-5.1,0-10.2-1.4-14.6-4.1l-0.5,0.9c4.5,2.8,9.8,4.3,15.1,4.3c12.7,0,24-8.4,27.6-20.5l-1-0.3
		C59.1,49.5,48.1,57.7,35.9,57.7z"/>
	<path d="M121.6,18.3c-3.9,0-6.9,1.2-9,3.7c-2,2.3-3,5.4-3,9.4c0,3.9,1,7,3,9.3c2.1,2.5,5.1,3.7,8.9,3.7c4,0,7-1.2,9.1-3.7
		c2-2.3,3-5.5,3-9.5c0-4-1-7.1-3-9.3C128.5,19.4,125.5,18.3,121.6,18.3z M127.7,38.5c-1.3,2.3-3.4,3.4-6.1,3.4
		c-2.8,0-4.8-1.1-6.1-3.4c-1.1-1.8-1.6-4.2-1.6-7.2c0-3,0.5-5.4,1.6-7.2c1.3-2.3,3.4-3.4,6.1-3.4c2.8,0,4.8,1.1,6.1,3.4
		c1.1,1.8,1.6,4.2,1.6,7.2C129.3,34.3,128.8,36.7,127.7,38.5z"/>
	<path d="M159.8,40.9c-0.9-2.2-1.5-3.8-1.9-4.9l-4.1-11.2c-1.1-3-1.8-5.2-2-6.4c-1.1,0.1-1.9,0.1-2.4,0.1c-0.6,0-1.4,0-2.4-0.1
		c-0.5,2.1-1.2,4.7-2.3,7.7c-1.5,4.4-3,8.4-4.5,12c-0.5,1.2-0.9,2.1-1.2,2.8c-1.3,0-2.1-0.1-2.4-0.1c0.2,1.3,0.3,2.1,0.3,2.4
		c0,0.5-0.1,1.2-0.3,2c0.7-0.5,1.5-0.9,2.3-1c0.5-0.1,1.4-0.1,2.6-0.1h16.2c1.8,0,3.3,0.4,4.5,1.2c-0.1-0.7-0.2-1.4-0.2-2.1
		c0-0.7,0.1-1.4,0.2-2.3L159.8,40.9z M150,41.1c-2.5,0-4.8,0-7.1-0.1c0.3-1.3,0.9-3.3,1.7-5.7l4.3-13c1.8,5,3.1,8.7,4,11.2
		c1.6,4.8,2.5,7.3,2.6,7.6C153.1,41,151.3,41.1,150,41.1z"/>
	<path d="M101.8,32.1c-1.2-0.7-2.9-1.2-5.3-1.4c4.6-0.5,6.9-2.6,6.9-6.1c0-2-0.7-3.6-2.1-4.7c-1.3-1-2.9-1.4-5-1.4
		c-0.8,0-2.1,0-3.8,0.1c-1.7,0.1-2.9,0.1-3.8,0.1c-0.9,0-1.8-0.1-2.8-0.2c0.5,1.3,0.9,3.4,1,6.4v6.6c0,7.5-0.4,11.8-1.1,12.6
		c1.7-0.1,3-0.1,4-0.1c0.6,0,1.6,0,2.9,0.1c1.3,0,2.3,0.1,2.9,0.1c2.5,0,4.5-0.6,6-1.8c1.7-1.3,2.5-3.2,2.5-5.6
		C104.1,34.6,103.3,33,101.8,32.1z M90.6,20.9c1.2-0.1,2.3-0.1,3.3-0.1c3.7,0,5.5,1.4,5.5,4.2c0,1.5-0.5,2.7-1.5,3.4
		c-1,0.8-2.3,1.1-3.8,1.1c-1.3,0-2.5-0.1-3.6-0.2C90.5,24.4,90.5,21.6,90.6,20.9z M98.2,40.7c-1.1,0.8-2.5,1.2-4.1,1.2
		c-1.4,0-2.3-0.1-2.7-0.4c-0.6-0.4-0.9-1.2-0.9-2.6v-6.8c2.2,0,3.3-0.1,3.4-0.1c4.1,0,6.1,1.6,6.1,4.9C100,38.6,99.4,39.8,98.2,40.7
		z"/>
	<path d="M262.6,13.3c-0.4-0.4-0.7-0.8-1-1.3c-1.9,1.7-3.6,2.6-5.1,2.6c-1.5,0-3.2-0.9-5.1-2.6c-0.2,0.5-0.6,0.9-1,1.3
		c2.9,2.6,4.9,3.9,6,3.9C257.8,17.2,259.8,15.9,262.6,13.3z"/>
	<path d="M266.4,25.6c0-2.9,0.1-5.3,0.4-7.2c-1,0.1-1.7,0.2-2.2,0.2c-0.6,0-1.3-0.1-2-0.2c-1.2,2.1-2.8,4.8-4.8,8
		c-1.6,2.6-3.3,5.2-4.9,7.8c-0.7,1.1-1.4,2.1-2.1,3.2c-0.8,1.2-1.4,2.3-1.8,3.3c0.3-2.6,0.5-6.1,0.5-10.4v-4.7
		c0-3.2,0.3-5.6,0.8-7.2c-1.1,0.2-1.9,0.3-2.4,0.3c-0.6,0-1.4-0.1-2.6-0.3c0.7,1.9,1.1,5.2,1.1,9.7V32c0,2.6-0.1,4.8-0.2,6.8
		c-0.1,1.5-0.2,2.4-0.3,2.8c-0.2,1-0.6,1.8-1.2,2.5c1.2-0.1,2.2-0.1,3.2-0.1c1.3,0,2.5,0,3.6,0.1c0.7-1.8,1.7-3.7,2.8-5.4l5.8-9.4
		c0.6-1,1.3-2,2-2.9c0.8-1.2,1.3-2.2,1.6-3.1c-0.1,0.9-0.1,2.3-0.1,4.1c0,0.3,0,1.2,0,2.5c0,1.3,0,2.5,0,3.3c0,5.8-0.4,9.5-1.1,11
		c0.6-0.1,1.5-0.1,2.7-0.1c0.5,0,1.3,0,2.4,0.1c-0.6-1.6-0.9-4.6-1.1-8.9C266.4,34.1,266.4,30.9,266.4,25.6z"/>
	<path d="M352.2,40.2c-0.1-0.2-0.6-1.7-1.5-4.4c-1-2.9-2-5.7-2.9-8.6c-1.1-3.3-1.9-6.2-2.4-8.7c-1.2,0.1-2.2,0.2-2.9,0.2
		c-0.7,0-1.7-0.1-3-0.2c-0.1,0.9-0.4,1.8-0.7,2.9c-0.2,0.6-0.5,1.5-0.9,2.8l-4,11.9c-1.2,3.5-2.3,6.2-3.5,8c1.1-0.1,1.9-0.2,2.5-0.2
		c0.6,0,1.4,0.1,2.5,0.2c-0.1-0.9,0.1-2.2,0.6-3.8c0.4-1.3,0.8-2.6,1.2-3.8c2.2-0.1,3.9-0.2,5-0.2c1.5,0,3.1,0.1,4.6,0.2
		c0.4,1.1,0.7,2.3,1.1,3.4c0.5,1.5,0.7,2.7,0.7,3.4c0,0.2,0,0.5-0.1,0.9c1.1-0.2,2-0.3,2.8-0.3c0.7,0,1.5,0.1,2.4,0.2
		c-0.1-0.5-0.3-1-0.4-1.4C353,42,352.6,41.2,352.2,40.2z M342.1,33.7c-0.9,0-2.3,0-4-0.1l4.2-12.9c0.7,3,1.9,7.3,3.6,12.9
		C344.3,33.6,343,33.7,342.1,33.7z"/>
	<path d="M409.7,36l-4.1-11.2c-1.1-3-1.8-5.2-2-6.4c-1.1,0.1-1.9,0.1-2.4,0.1c-0.6,0-1.4,0-2.4-0.1c-0.4,2.1-1.2,4.7-2.3,7.7
		c-2.8,8.1-5.2,14.1-7.1,17.9c1-0.1,1.7-0.1,2.3-0.1c0.7,0,1.7,0.1,2.9,0.3c0-0.2,0-0.4,0-0.6c0-1.4,0.7-4.2,2-8.3l4.3-13
		c4.6,12.1,6.8,19.1,6.8,21c0,0.3,0,0.6-0.1,0.9c1.2-0.1,2.2-0.2,2.9-0.2c0.7,0,1.7,0.1,2.9,0.2c-0.7-1.1-1.4-2.4-2-4
		C411.2,39.9,410.6,38.5,409.7,36z"/>
	<path d="M322.8,21.6h4c1.8,0,3.3,0.4,4.5,1.2c-0.1-0.7-0.2-1.4-0.2-2.1c0-0.7,0.1-1.4,0.2-2.3c-2.6,0.2-6,0.3-10.1,0.3
		c0,0-1.2,0-3.5,0.1c-1.6,0-2.9,0-3.9,0c-1.4,0-2.5-0.2-3.4-0.3c0.2,1.3,0.3,2.1,0.3,2.4c0,0.6-0.1,1.2-0.3,2c1-0.8,2.5-1.2,4.3-1.2
		h3.9c0.2,2.3,0.3,4.9,0.3,7.8v5.5c0,5.3-0.3,8.5-1,9.3c1.3-0.1,2.3-0.2,3-0.2c0.9,0,1.8,0.1,2.7,0.2c-0.7-1.2-1-4.1-1-8.6v-2.9
		C322.6,28.3,322.6,24.6,322.8,21.6z"/>
	<path d="M178.9,18.3c-3.9,0-6.9,1.2-9,3.7c-2,2.3-3,5.4-3,9.4c0,3.9,1,7,3,9.3c2.1,2.5,5.1,3.7,8.9,3.7c4,0,7-1.2,9.1-3.7
		c2-2.3,3-5.5,3-9.5c0-4-1-7.1-3-9.3C185.8,19.4,182.8,18.3,178.9,18.3z M185,38.5c-1.3,2.3-3.4,3.4-6.1,3.4c-2.8,0-4.8-1.1-6.1-3.4
		c-1.1-1.8-1.6-4.2-1.6-7.2c0-3,0.5-5.4,1.6-7.2c1.3-2.3,3.4-3.4,6.1-3.4c2.8,0,4.8,1.1,6.1,3.4c1.1,1.8,1.6,4.2,1.6,7.2
		C186.6,34.3,186.1,36.7,185,38.5z"/>
	<path d="M301.2,20.5c2.4,0,4.3,0.9,5.5,2.6c0.2-1.2,0.6-2.5,1.2-3.7c-1.9-0.7-4.1-1.1-6.8-1.1c-4.3,0-7.6,1.1-9.8,3.4
		c-2.2,2.3-3.4,5.5-3.4,9.8c0,4.1,1.2,7.2,3.6,9.5s5.6,3.4,9.7,3.4c2,0,3.9-0.2,5.8-0.6c0.2-1.2,0.5-2.4,0.9-3.7c-1.6,1.3-3.6,2-6,2
		c-3.1,0-5.5-1.1-7.3-3.2c-1.6-2-2.4-4.5-2.4-7.7c0-3,0.7-5.5,2.1-7.3C296,21.6,298.3,20.5,301.2,20.5z"/>
	<path d="M213.4,36l-4.1-11.2c-1.1-3-1.8-5.2-2-6.4c-1.1,0.1-1.9,0.1-2.4,0.1c-0.6,0-1.4,0-2.4-0.1c-0.4,2.1-1.2,4.7-2.3,7.7
		c-2.8,8.1-5.2,14.1-7.1,17.9c1-0.1,1.7-0.1,2.3-0.1c0.7,0,1.7,0.1,2.9,0.3c0-0.2,0-0.4,0-0.6c0-1.4,0.7-4.2,2-8.3l4.3-13
		c4.6,12.1,6.8,19.1,6.8,21c0,0.3,0,0.6-0.1,0.9c1.2-0.1,2.2-0.2,2.9-0.2c0.7,0,1.7,0.1,2.9,0.2c-0.7-1.1-1.4-2.4-2-4
		C214.9,39.9,214.4,38.5,213.4,36z"/>
	<path d="M231.6,41.6c-1.5,0-2.4-0.2-2.8-0.5c-0.5-0.4-0.8-1.3-0.8-2.7v-6.5c1.5,0,2.8,0,3.9,0c2.4,0,4.2,0.3,5.3,1
		c-0.1-0.7-0.2-1.5-0.2-2.2c0-0.8,0.1-1.7,0.2-2.5c-0.9,0.7-2.3,1.1-4.2,1.1c-1.7,0-3.4-0.1-5-0.2c0-3.9,0-6.6,0.1-8
		c1.5-0.1,3.2-0.1,5-0.1c2.2,0,3.8,0.6,4.7,1.7c-0.1-0.6-0.1-1.2-0.1-1.8c0,0,0-0.8,0.1-2.4c-3.4,0.1-6.3,0.2-8.4,0.2
		c-2.4,0-4.4-0.1-5.9-0.2c0.6,1.7,0.8,3.9,0.8,6.6v12.1c0,3-0.3,5.4-1,7c1.3-0.1,2.9-0.2,4.7-0.2c2,0,5.4,0.1,10.2,0.2
		c0.2-1.5,0.6-2.9,1.1-4.4c-1,0.8-2.2,1.3-3.7,1.6C234.8,41.5,233.4,41.6,231.6,41.6z"/>
	<path d="M277.2,29.8c-1.3,0-2.7-0.1-4.2-0.2c0.1,0.7,0.1,1.3,0.1,1.8c0,0.6,0,1.1-0.1,1.7c1.6-0.1,3-0.2,4.2-0.2
		c1.2,0,2.7,0.1,4.3,0.2c-0.1-0.6-0.1-1.2-0.1-1.8c0-0.5,0-1.1,0.1-1.7C280,29.8,278.5,29.8,277.2,29.8z"/>
	<path d="M378,13.5c-0.4-0.4-0.7-0.8-1-1.3c-1.9,1.7-3.6,2.6-5.1,2.6c-1.5,0-3.2-0.9-5.1-2.6c-0.2,0.5-0.6,0.9-1,1.3
		c2.9,2.6,4.9,3.9,6,3.9C373.2,17.4,375.2,16.1,378,13.5z"/>
	<path d="M381.8,25.8c0-2.9,0.1-5.3,0.4-7.2c-1,0.1-1.7,0.2-2.2,0.2c-0.6,0-1.3-0.1-2-0.2c-1.2,2.1-2.8,4.8-4.8,8
		c-1.6,2.6-3.3,5.2-4.9,7.8c-0.7,1.1-1.4,2.1-2.1,3.2c-0.8,1.2-1.4,2.3-1.8,3.3c0.3-2.6,0.5-6.1,0.5-10.4v-4.7
		c0-3.2,0.3-5.6,0.8-7.2c-1.1,0.2-1.9,0.3-2.4,0.3c-0.6,0-1.4-0.1-2.6-0.3c0.7,1.9,1.1,5.2,1.1,9.7v3.8c0,2.6-0.1,4.8-0.2,6.8
		c-0.1,1.5-0.2,2.4-0.3,2.8c-0.2,1-0.6,1.8-1.2,2.5c1.2-0.1,2.2-0.1,3.2-0.1c1.3,0,2.5,0,3.6,0.1c0.7-1.8,1.7-3.7,2.8-5.4l5.8-9.4
		c0.6-1,1.3-2,2-2.9c0.8-1.2,1.3-2.2,1.6-3.1c-0.1,0.9-0.1,2.3-0.1,4.1c0,0.3,0,1.2,0,2.5c0,1.3,0,2.5,0,3.3c0,5.8-0.4,9.5-1.1,11
		c0.6-0.1,1.5-0.1,2.7-0.1c0.5,0,1.3,0,2.4,0.1c-0.6-1.6-0.9-4.6-1.1-8.9C381.8,34.3,381.8,31.2,381.8,25.8z"/>
	<path d="M416.4,16.3c-0.2-0.4-0.5-0.7-0.8-0.9c0.9-0.2,1.4-0.8,1.4-1.6c0-0.7-0.3-1.2-0.9-1.5c-0.4-0.2-1-0.3-1.8-0.3h-2.2v6.8h1.2
		v-3.1h0.5c0.6,0,1.1,0.2,1.3,0.5c0.1,0.2,0.2,0.6,0.3,1.2c0.1,0.6,0.2,1.1,0.3,1.4h1.4c-0.1-0.2-0.2-0.7-0.3-1.3
		C416.6,16.9,416.5,16.5,416.4,16.3z M414.4,14.8h-1.1V13h1.2c0.8,0,1.2,0.3,1.2,0.9C415.8,14.5,415.3,14.8,414.4,14.8z"/>
	<path d="M418.2,11.6c-1-1-2.3-1.6-3.8-1.6c-1.5,0-2.8,0.5-3.8,1.6c-1,1-1.6,2.3-1.6,3.8c0,1.5,0.5,2.8,1.6,3.8c1,1,2.3,1.6,3.8,1.6
		c1.5,0,2.8-0.5,3.8-1.6c1-1,1.6-2.3,1.6-3.8C419.8,13.9,419.3,12.7,418.2,11.6z M417.9,18.9c-0.9,1-2.1,1.4-3.5,1.4
		c-1.4,0-2.5-0.5-3.5-1.4c-1-1-1.4-2.1-1.4-3.5c0-1.4,0.5-2.5,1.4-3.5c1-1,2.1-1.4,3.5-1.4c1.4,0,2.5,0.5,3.5,1.4
		c0.9,0.9,1.4,2.1,1.4,3.5C419.3,16.8,418.8,18,417.9,18.9z"/>
</g>
</svg>
