<?xml version="1.0" encoding="utf-8"?>
<!-- Generator: Adobe Illustrator 22.0.0, SVG Export Plug-In . SVG Version: 6.00 Build 0)  -->
<svg version="1.1" id="Capa_1" xmlns="http://www.w3.org/2000/svg" xmlns:xlink="http://www.w3.org/1999/xlink" x="0px" y="0px"
	 viewBox="0 0 512 512" style="enable-background:new 0 0 512 512;" xml:space="preserve">
<path d="M418.1,70.5h-64.3l-71.5-39c0.3-1.6,0.5-3.2,0.5-4.8c0-14.7-12-26.6-26.6-26.6c-14.7,0-26.6,12-26.6,26.6
	c0,1.7,0.2,3.3,0.4,4.8l-71.5,39H93.9c-15.2,0-27.6,12.4-27.6,27.6v242.8c0,4.1,3.4,7.5,7.5,7.5c4.2,0,7.5-3.4,7.5-7.5V98.1
	c0-6.9,5.6-12.5,12.5-12.5h66.5l0,0H418c6.9,0,12.5,5.6,12.5,12.5v170.1c0,4.1,3.4,7.5,7.5,7.5s7.5-3.4,7.5-7.5V98.1
	C445.7,82.9,433.3,70.5,418.1,70.5L418.1,70.5z M256.2,15c6.4,0,11.6,5.2,11.6,11.6s-5.2,11.6-11.6,11.6s-11.6-5.2-11.6-11.6
	C244.5,20.2,249.8,15,256.2,15z M236.8,44.9c4.9,5.2,11.8,8.4,19.4,8.4s14.5-3.2,19.4-8.4l46.9,25.6H189.9L236.8,44.9z"/>
<path d="M438.2,249c-4.1,0-7.5-1.2-7.5,3v232.4c0,6.9-5.6,12.5-12.5,12.5H93.9c-6.9,0-12.5-5.6-12.5-12.5V339.5
	c0-4.1-3.4-6.5-7.5-6.5s-7.5,0.2-7.5,4.4v147.1c0,15.2,12.4,27.6,27.6,27.6h324.3c15.2,0,27.6-12.4,27.6-27.6V243.4
	c0-4.1-3.4,12.6-7.5,12.6L438.2,249z"/>
<path d="M109.3,168.8c-4.2,0-7.5-2.6-7.5,1.5V469c0,4.1,3.4,7.5,7.5,7.5h293.3c4.1,0,7.5-3.4,7.5-7.5V113.6c0-4.2-3.4-7.5-7.5-7.5
	H109.3c-4.2,0-7.5,3.4-7.5,7.5v59.5c0,4.1,3.4,12.1,7.5,12.1s7.5-3.4,7.5-7.5v-56.6h278.3v340.4H116.9V177.6
	c0-4.1-3.4-16.4-7.5-16.4L109.3,168.8z"/>
</svg>
