<?xml version="1.0" encoding="utf-8"?>
<!-- Generator: Adobe Illustrator 22.0.0, SVG Export Plug-In . SVG Version: 6.00 Build 0)  -->
<svg version="1.1" id="Capa_1" xmlns="http://www.w3.org/2000/svg" xmlns:xlink="http://www.w3.org/1999/xlink" x="0px" y="0px"
	 viewBox="0 0 575.1 551.1" style="enable-background:new 0 0 575.1 551.1;" xml:space="preserve">
<path d="M525.4,417.8l-103.6-69.1c-13.7-9-32.4-6-42.5,6.9l-30.2,38.8c-3.5,4.5-9.6,5.9-14.6,3.1l-5.7-3.2l-0.2-0.1
	c-18.9-10.4-42.5-23.3-90-70.6c-47.9-47.8-60.6-71.3-70.7-90.2l-3.1-5.7c-2.8-4.9-1.5-11.2,3-14.7l38.8-30.2
	c13-10.1,16-28.8,6.9-42.5L144.2,36.7c-9.4-14.1-28.1-18.3-42.6-9.6l-43.3,26c-14,8.2-24.1,21.4-28.6,37.1
	c-15.7,57.3-4,156,141.1,301.1c52.9,52.9,103.8,92.1,151.2,116.3c38.8,19.9,75.6,30,109.4,30c0.4,0,0.7,0,1.1,0
	c13.1,0,26.4-1.8,39.4-5.3c15.7-4.4,28.9-14.6,37.1-28.6l26.1-43.3C543.7,446,539.5,427.2,525.4,417.8z M146.9,237.5l3.1,5.6
	c10.9,20.1,24.5,45,74.3,94.7c49.7,49.7,74.7,63.3,94.7,74.3l5.6,3.1c13.5,7.6,30.8,4,40.2-8.3l30.2-38.8c3.7-4.7,10.5-5.9,15.6-2.6
	l103.6,69.1c5.2,3.2,6.8,10.2,3.6,15.5l-26,43.3c-5.5,9.4-14.6,16.5-25.1,19.5c-52.1,14.3-143.3,2.3-281.5-135.9
	C46.9,238.7,34.9,147.6,49.1,95.5c3-10.6,9.9-19.5,19.5-25.2l43.3-26c1.9-1.1,3.9-1.7,5.9-1.7c3.8,0,7.4,1.8,9.6,5.2l37.5,56.4
	l31.5,47.3c3.3,5,2.2,11.9-2.6,15.6l-38.8,30.2C142.8,206.7,139.3,224,146.9,237.5z"/>
</svg>
