<?xml version="1.0" encoding="utf-8"?>
<!-- Generator: Adobe Illustrator 22.0.0, SVG Export Plug-In . SVG Version: 6.00 Build 0)  -->
<svg version="1.1" id="Capa_1" xmlns="http://www.w3.org/2000/svg" xmlns:xlink="http://www.w3.org/1999/xlink" x="0px" y="0px"
	 viewBox="0 0 512 512" style="enable-background:new 0 0 512 512;" xml:space="preserve">
<g>
	<g>
		<g>
			<path d="M256,0C150.1,0,64,86.1,64,192c0,141.6,177.1,310,184.7,317.1c2.1,1.9,4.7,2.9,7.3,2.9s5.3-1,7.3-2.9
				C270.9,502,448,333.6,448,192C448,86.1,361.9,0,256,0z M256,486.4C222.5,452.9,85.3,308.8,85.3,192
				c0-94.1,76.6-170.7,170.7-170.7S426.7,97.9,426.7,192C426.7,308.8,289.5,452.9,256,486.4z"/>
			<path d="M256,85.3c-58.8,0-106.7,47.9-106.7,106.7S197.2,298.7,256,298.7S362.7,250.8,362.7,192S314.8,85.3,256,85.3z M256,277.3
				c-47.1,0-85.3-38.3-85.3-85.3s38.3-85.3,85.3-85.3s85.3,38.3,85.3,85.3S303.1,277.3,256,277.3z"/>
		</g>
	</g>
</g>
</svg>
