<?xml version="1.0" encoding="utf-8"?>
<!-- Generator: Adobe Illustrator 22.0.0, SVG Export Plug-In . SVG Version: 6.00 Build 0)  -->
<svg version="1.1" id="Capa_1" xmlns="http://www.w3.org/2000/svg" xmlns:xlink="http://www.w3.org/1999/xlink" x="0px" y="0px"
	 viewBox="0 0 512 512" style="enable-background:new 0 0 512 512;" xml:space="preserve">
<style type="text/css">
	.st0{fill:#000105;}
</style>
<path class="st0" d="M419.8,305.5c-42.7-0.8-85.4-0.4-128.2-0.3c-16.9-0.5-63.3-0.1-70.1-0.1c-30.3,0-60.7,0.2-91-0.1
	c-23.7-0.3-39-17.1-36.6-39.4c1.9-17.8,16.6-30.2,37.1-30.3c47.9-0.3,95.9-0.1,143.9-0.1v0c46.9,0,93.8,0.2,140.7-0.1
	c38.6-0.3,70.5-24,80.9-59.6c0.5-1.8,1.2-3.8,1.5-5.6c0-0.1,0-0.2,0.1-0.3c0.2-1,2.8-12.4,2.4-22.9c-0.3-9.8-3.6-18.7-3.9-19.7
	c-10.5-36-42.7-59.8-81.8-59.9c-109.7-0.2-219.4,0-329.1-0.1c-2,0-7.9-0.2-13.1-0.5l0.1-29.4l-13,0l-0.3,103l13,0l0.1-23.5
	c4.1-0.1,8.3-0.2,9.9-0.2c110.8-0.3,221.5-0.3,332.3-0.1c21.1,0,36.1,15.1,36,34.9c0,19.6-15.4,34.4-36.3,34.6
	c-18.7,0.2-37.4,0-56.1,0c-76.2,0-152.4-0.3-228.6,0.2c-58.8,0.4-98.2,53-82.1,108.6c10.4,36.1,43.4,59.7,84.2,59.8
	c93.8,0.2,187.7,0,281.5,0.1c22.1,0,37.3,14.4,37.5,34.5c0.1,20.2-15.2,35.1-36.9,35.2c-110.4,0.1-220.8,0.1-331.3,0
	c-1.3,0-5.8,0.2-10,0.4l0.1-31.6l-13,0l-0.3,103l13,0l0.1-22.1c5-0.3,10.8-0.6,14-0.6c108.3,0.1,216.6,0.1,324.9-0.1
	c9.4,0,19.1-1,28.2-3.4c38.7-10.4,65.2-50.2,60.3-89.7C494.8,338.1,461.7,306.3,419.8,305.5z M414.3,459.2c-109,0.2-218,0.1-327,0.1
	c-4,0-8.1-0.4-12.2-0.6v-20c3.5-0.2,6.6-0.6,9.6-0.6c85.4,0,170.7,0,256.1,0c25.8,0,51.5,0.4,77.3-0.3c27.1-0.8,47.4-23.2,46.6-50.1
	c-0.8-27.5-22.4-47.4-51.8-47.4c-93.8-0.1-187.7,0.4-281.5-0.5c-13.5-0.1-28.4-3.9-40-10.6c-27.9-15.9-39.2-48-30.6-78.7
	c8.4-30,35.5-50.3,67.9-50.5c37.4-0.2,74.8,0,112.2,0c57.9,0,115.7,0.2,173.6-0.1c21.8-0.1,37.9-10.4,46.7-30.4
	c7.9-17.9,3.4-38.8-10.5-52.8c-10.9-10.9-24.2-14.7-39.4-14.6c-107.6,0.2-215.2,0.1-322.8,0.1c-4.4,0-8.8,0-13.4,0V81.4
	c4.2-0.2,7.3-0.5,10.5-0.5c63.1,0,126.3,0,189.4,0c46.2,0,92.4-0.2,138.6,0.1c35.4,0.2,59.6,18.3,70.1,51.7
	c0.2,0.6,2.6,7.5,2.8,14.9c0.2,8.2-1.5,17.2-2.1,20.1c-0.4,1.2-0.8,2.5-1.2,3.7c-10.7,31.7-35.8,49.8-69.6,49.9
	c-30.3,0.1-60.7,0-91,0c-64.9,0-129.8-0.2-194.7,0.2c-26.4,0.2-47.3,20.9-48.4,46.5c-1.1,25.7,18.5,49.7,44,50.5
	c31,1,90.7,0.8,135.2,0.5c2.7,0,25.5,0,28.7,0.1c42.3,0,84.7-0.1,127,0c40.9,0.2,71.7,30.4,71.9,70.2
	C486.6,428.7,455.5,459.2,414.3,459.2z"/>
</svg>
