<?xml version="1.0" encoding="utf-8"?>
<!-- Generator: Adobe Illustrator 22.0.0, SVG Export Plug-In . SVG Version: 6.00 Build 0)  -->
<svg version="1.1" id="Capa_1" xmlns="http://www.w3.org/2000/svg" xmlns:xlink="http://www.w3.org/1999/xlink" x="0px" y="0px"
	 viewBox="0 0 334 536" style="enable-background:new 0 0 334 536;" xml:space="preserve">
<style type="text/css">
	.st0{fill:#000105;}
</style>
<g>
	<path class="st0" d="M294.7,134.4h-76.5v-14c0-58.4-47.5-105.9-105.9-105.9C54,14.5,6.5,62,6.5,120.4v401.4c0,4.2,3.5,7.7,7.7,7.7
		c2.1,0,4.2-0.9,5.6-2.4c1.4-1.5,2.1-3.4,2-5.4l0-401.3c0-49.8,40.6-90.4,90.4-90.4c49.8,0,90.4,40.6,90.4,90.4v14h-76.5
		c-12.9,0.1-23.4,10.6-23.4,23.4v6.2c0.1,12.9,10.6,23.4,23.4,23.4h168.6c12.9-0.1,23.4-10.6,23.4-23.4v-6.2
		C318,144.9,307.5,134.4,294.7,134.4z M302.7,157.7v6.2c0,4.4-3.5,7.9-7.9,7.9H126.2c-4.4,0-7.9-3.5-7.9-7.9v-6.2
		c0-4.3,3.6-7.8,7.9-7.9l168.6,0C299.2,149.8,302.7,153.3,302.7,157.7z"/>
	<path class="st0" d="M210.4,227.5c4.2,0,7.7-3.5,7.7-7.7v-12.5c0-4.2-3.5-7.7-7.7-7.7c-4.2,0-7.7,3.5-7.7,7.7v12.5
		C202.7,224,206.2,227.5,210.4,227.5z"/>
	<path class="st0" d="M173,199.6c-4.2,0-7.7,3.5-7.7,7.7v37.5c0,4.2,3.5,7.7,7.7,7.7c4.2,0,7.7-3.5,7.7-7.7v-37.5
		C180.7,203.1,177.3,199.6,173,199.6z"/>
	<path class="st0" d="M135.5,199.6c-4.2,0-7.7,3.5-7.7,7.7v12.5c0,4.2,3.5,7.7,7.7,7.7s7.7-3.5,7.7-7.7v-12.5
		C143.2,203.1,139.8,199.6,135.5,199.6z"/>
	<path class="st0" d="M285.4,199.6c-4.2,0-7.7,3.5-7.7,7.7v12.5c0,4.2,3.5,7.7,7.7,7.7c4.2,0,7.7-3.5,7.7-7.7v-12.5
		C293.1,203.1,289.7,199.6,285.4,199.6z"/>
	<path class="st0" d="M247.9,199.6c-4.2,0-7.7,3.5-7.7,7.7v37.5c0,4.2,3.5,7.7,7.7,7.7c4.2,0,7.7-3.5,7.7-7.7v-37.5
		C255.6,203.1,252.2,199.6,247.9,199.6z"/>
	<path class="st0" d="M202.7,319.7c0,4.2,3.5,7.7,7.7,7.7c4.2,0,7.7-3.5,7.7-7.7v-74.9c0-4.2-3.5-7.7-7.7-7.7
		c-4.2,0-7.7,3.5-7.7,7.7V319.7z"/>
	<path class="st0" d="M173,262.1c-4.2,0-7.7,3.5-7.7,7.7v25c0,4.2,3.5,7.7,7.7,7.7c4.2,0,7.7-3.5,7.7-7.7v-25
		C180.7,265.6,177.3,262.1,173,262.1z"/>
	<path class="st0" d="M135.5,237.1c-4.2,0-7.7,3.5-7.7,7.7v74.9c0,4.2,3.5,7.7,7.7,7.7s7.7-3.5,7.7-7.7v-74.9
		C143.2,240.6,139.8,237.1,135.5,237.1z"/>
	<path class="st0" d="M285.4,237.1c-4.2,0-7.7,3.5-7.7,7.7v74.9c0,4.2,3.5,7.7,7.7,7.7c4.2,0,7.7-3.5,7.7-7.7v-74.9
		C293.1,240.6,289.7,237.1,285.4,237.1z"/>
	<path class="st0" d="M247.9,262.1c-4.2,0-7.7,3.5-7.7,7.7v25c0,4.2,3.5,7.7,7.7,7.7c4.2,0,7.7-3.5,7.7-7.7v-25
		C255.6,265.6,252.2,262.1,247.9,262.1z"/>
	<path class="st0" d="M210.5,349.4c-2.1,0-4.1,0.8-5.6,2.3c-1.4,1.5-2.2,3.4-2.1,5.4l0,12.5c0,4.2,3.5,7.7,7.7,7.7
		c4.2,0,7.7-3.5,7.7-7.7v-12.5C218.2,352.9,214.8,349.4,210.5,349.4z"/>
	<path class="st0" d="M173,312c-4.2,0-7.7,3.5-7.7,7.7v50c0,4.2,3.5,7.7,7.7,7.7c4.2,0,7.7-3.5,7.7-7.7v-50
		C180.7,315.5,177.3,312,173,312z"/>
	<path class="st0" d="M135.5,349.4c-4.2,0-7.7,3.5-7.7,7.7v12.5c0,4.2,3.5,7.7,7.7,7.7s7.7-3.5,7.7-7.7v-12.5
		C143.2,352.9,139.8,349.4,135.5,349.4z"/>
	<path class="st0" d="M285.4,349.4c-4.2,0-7.7,3.5-7.7,7.7v12.5c0,4.2,3.5,7.7,7.7,7.7c4.2,0,7.7-3.5,7.7-7.7v-12.5
		C293.1,352.9,289.7,349.4,285.4,349.4z"/>
	<path class="st0" d="M247.9,312c-4.2,0-7.7,3.5-7.7,7.7v50c0,4.2,3.5,7.7,7.7,7.7c4.2,0,7.7-3.5,7.7-7.7v-50
		C255.6,315.5,252.2,312,247.9,312z"/>
</g>
</svg>
