<?xml version="1.0" encoding="utf-8"?>
<!-- Generator: Adobe Illustrator 22.0.0, SVG Export Plug-In . SVG Version: 6.00 Build 0)  -->
<svg version="1.1" id="Слой_1" xmlns="http://www.w3.org/2000/svg" xmlns:xlink="http://www.w3.org/1999/xlink" x="0px" y="0px"
	 viewBox="0 0 534 528" style="enable-background:new 0 0 534 528;" xml:space="preserve">
<style type="text/css">
	.st0{stroke:#000105;stroke-width:3;stroke-miterlimit:10;}
</style>
<path class="st0" d="M202,22H58c-22.1,0-40,17.9-40,40v144c0,22.1,17.9,40,40,40h68.5c4.4,0,2-3.6,2-8s8-8,3.6-8H58
	c-13.3,0-24-10.7-24-24V62c0-13.3,10.7-24,24-24h144c13.3,0,24,10.7,24,24v144c0,13.3-10.7,24-24,24h-80c-4.4,0-8,3.6-8,8s3.6,8,8,8
	h80c22.1,0,40-17.9,40-40V62C242,39.9,224.1,22,202,22z"/>
<path class="st0" d="M458,22H314c-22.1,0-40,17.9-40,40v144c0,22.1,17.9,40,40,40h144c22.1,0,40-17.9,40-40V62
	C498,39.9,480.1,22,458,22z M482,206c0,13.3-10.7,24-24,24H314c-13.3,0-24-10.7-24-24V62c0-13.3,10.7-24,24-24h144
	c13.3,0,24,10.7,24,24V206z"/>
<path class="st0" d="M458,278H314c-22.1,0-40,17.9-40,40v144c0,22.1,17.9,40,40,40h144c22.1,0,40-17.9,40-40V318
	C498,295.9,480.1,278,458,278z M482,462c0,13.3-10.7,24-24,24H314c-13.3,0-24-10.7-24-24V318c0-13.3,10.7-24,24-24h144
	c13.3,0,24,10.7,24,24V462z"/>
<path class="st0" d="M202,278H58c-22.1,0-40,17.9-40,40v144c0,22.1,17.9,40,40,40h144c22.1,0,40-17.9,40-40V318
	C242,295.9,224.1,278,202,278z M226,462c0,13.3-10.7,24-24,24H58c-13.3,0-24-10.7-24-24V318c0-13.3,10.7-24,24-24h144
	c13.3,0,24,10.7,24,24V462z"/>
</svg>
