<?xml version="1.0" encoding="utf-8"?>
<!-- Generator: Adobe Illustrator 22.0.0, SVG Export Plug-In . SVG Version: 6.00 Build 0)  -->
<svg version="1.1" id="Layer_1" xmlns="http://www.w3.org/2000/svg" xmlns:xlink="http://www.w3.org/1999/xlink" x="0px" y="0px"
	 viewBox="0 0 512 512" style="enable-background:new 0 0 512 512;" xml:space="preserve">
<path d="M468,156.9h-34.2v-4.2c0-19.4-15.7-35.1-35.1-35.2H132.5c-19.4,0-35.1,15.8-35.2,35.2v4.2H77V26c0-3.9-3.1-7-7-7H26
	c-3.9,0-7,3.1-7,7v197c0,3.9,3.1,7,7,7h44c3.9,0,7-3.1,7-7v-16.1h20.4V486c0,3.9,3.1,7,7,7h279.2c3.9,0,7-3.1,7-7v-51h36.2
	c3.9,0,7-3.1,7-7V206.9H468c13.8,0,25-11.2,25-25S481.8,156.9,468,156.9z M63,216H33V33h30V216z M111.4,152.6
	c0-11.7,9.5-21.1,21.1-21.2l0,0c11.7,0,21.1,9.4,21.2,21.1c0,0,0,0,0,0.1v4.2h-42.3C111.4,156.8,111.4,152.6,111.4,152.6z M77,192.9
	v-22h76.7v22H77z M376.6,479H111.4V206.9h42.3V428c0,3.9,3.1,7,7,7h215.9L376.6,479L376.6,479z M419.8,321v14v17.5v14V421H167.7
	v-54.5v-14V335v-14V152.6c0-7.6-2.5-15.1-7.1-21.2h238.1c5.6,0,11,2.2,15,6.2s6.2,9.4,6.2,15V321H419.8z M468,192.9h-34.2v-22H468
	c6.1,0,11,4.9,11,11S474.1,192.9,468,192.9z"/>
</svg>
