<?xml version="1.0" encoding="utf-8"?>
<!-- Generator: Adobe Illustrator 22.0.0, SVG Export Plug-In . SVG Version: 6.00 Build 0)  -->
<svg version="1.1" id="Layer_1" xmlns="http://www.w3.org/2000/svg" xmlns:xlink="http://www.w3.org/1999/xlink" x="0px" y="0px"
	 viewBox="0 0 512 512" style="enable-background:new 0 0 512 512;" xml:space="preserve">
<path d="M355.9,97.6H156.1c-3.9,0-7,3.1-7,7v255.9c0,3.9,3.1,7,7,7h199.8c3.9,0,7-3.1,7-7V104.6C362.9,100.7,359.8,97.6,355.9,97.6z
	 M261.9,111.6l-2.6,32.2c-0.2,1.8-1.8,3.2-3.6,3c-1.6-0.1-2.9-1.4-3-3l-2.6-32.2C250.1,111.6,261.9,111.6,261.9,111.6z M348.9,353.5
	l-10.2,0.1H173.3l-10.2,0.3V111.6h73l2.7,33.4c0.8,9.5,9.1,16.6,18.7,15.8c8.4-0.7,15.1-7.4,15.8-15.8l2.7-33.4h73v241.9H348.9z"/>
<path d="M385.5,70h-109V53.5c0-3.9-3.1-7-7-7h-27c-3.9,0-7,3.1-7,7V70h-109c-3.9,0-7,3.1-7,7v284.3c0,18.7,15.2,33.8,33.8,33.8
	c17.3,0.2,32.9,10.6,39.7,26.6c11.8,26.7,36,43.4,63,43.4s51.2-16.6,63-43.4c6.8-15.9,22.4-26.3,39.7-26.6
	c18.7,0,33.8-15.2,33.8-33.8V77C392.5,73.1,389.4,70,385.5,70L385.5,70z M249.5,60.5h13V70h-13V60.5z M378.5,361.3
	c0,10.9-8.9,19.8-19.8,19.8c-22.9,0.2-43.4,13.9-52.5,34.9c-9.5,21.6-28.8,35-50.2,35s-40.7-13.4-50.2-35c-9-21-29.6-34.7-52.5-34.9
	c-10.9,0-19.8-8.9-19.8-19.8V84h245V361.3z"/>
</svg>
